<svg width="86" height="76" viewBox="0 0 86 76" fill="none" xmlns="http://www.w3.org/2000/svg">
<path d="M36.7037 35.5556H50.037V33.3333H43.3703H36.7037V35.5556Z" fill="#BCF800"/>
<path d="M43.3704 12.2222C41.537 12.2222 40.037 13.7222 40.037 15.5556C40.037 17.3889 41.537 18.8889 43.3704 18.8889C45.2037 18.8889 46.7037 17.3889 46.7037 15.5556C46.7037 13.7222 45.2037 12.2222 43.3704 12.2222ZM43.3704 16.6667C42.9593 16.6667 42.6148 16.4333 42.4259 16.1111C42.3259 15.9445 42.2593 15.7667 42.2593 15.5556C42.2593 15.3445 42.3259 15.1667 42.4259 15C42.6148 14.6667 42.9593 14.4445 43.3704 14.4445C43.9815 14.4445 44.4815 14.9445 44.4815 15.5556C44.4815 16.1667 43.9815 16.6667 43.3704 16.6667Z" fill="#BCF800"/>
<path d="M51.8371 7.94446C49.5037 5.61112 46.4371 4.44446 43.3704 4.44446C40.3037 4.44446 37.2482 5.61112 34.9037 7.94446C30.2259 12.6222 30.2259 20.1889 34.9037 24.8667L43.3704 33.3333L51.8371 24.8667C56.5148 20.1889 56.5148 12.6222 51.8371 7.94446ZM43.3704 30.1889L36.4815 23.3C34.6371 21.4556 33.6259 19.0111 33.6259 16.4111C33.6259 13.8111 34.6371 11.3667 36.4815 9.52224C38.3259 7.67779 40.7704 6.66668 43.3704 6.66668C45.9704 6.66668 48.4148 7.67779 50.2593 9.52224C52.1037 11.3667 53.1148 13.8111 53.1148 16.4111C53.1148 19.0111 52.1037 21.4556 50.2593 23.3L43.3704 30.1889Z" fill="#BCF800"/>
<path d="M14.7657 69L13.5417 64.704H5.95774L4.73374 69H1.42174L6.94174 51.24H12.7977L18.2937 69H14.7657ZM6.70174 62.136H12.8217L9.79774 51.528H9.74974L6.70174 62.136ZM27.2877 59.712L36.1197 69H32.0157L23.6877 59.856H23.6397V69H20.4477V51.24H23.6397V59.64H23.6877L31.2957 51.24H35.1357L27.2877 59.712ZM48.2834 62.904V51.24H51.4034V62.736C51.4034 66.816 48.8114 69.24 44.4434 69.24C40.0754 69.24 37.4834 66.816 37.4834 62.736V51.24H40.7954V62.904C40.7954 65.232 42.1634 66.6 44.5154 66.6C46.8914 66.6 48.2834 65.232 48.2834 62.904ZM66.7255 64.296L69.3895 69H65.6936L61.8295 61.8H58.5175V69H55.2055V51.24H62.0935C66.2695 51.24 68.7655 53.136 68.7655 56.304C68.7655 59.736 66.3175 61.752 62.1655 61.752V61.8C64.1095 61.8 65.8375 62.712 66.7255 64.296ZM58.5175 59.376H62.2615C64.2055 59.376 65.3335 58.32 65.3335 56.544C65.3335 54.84 64.2055 53.808 62.2615 53.808H58.5175V59.376ZM75.205 66.432H84.565V69H71.893V51.24H84.301V53.808H75.205V58.608H83.461V61.176H75.205V66.432Z" fill="#BCF800"/>
</svg>
