<svg width="41" height="40" viewBox="0 0 41 40" fill="none" xmlns="http://www.w3.org/2000/svg">
<path d="M30.1371 8.84446C34.8593 13.5667 34.8593 21.2445 30.1371 25.9667C25.4148 30.6889 17.7371 30.6889 13.0148 25.9667C8.29262 21.2445 8.29262 13.5667 13.0148 8.84446C17.7371 4.12224 25.4148 4.12224 30.1371 8.84446ZM31.7037 7.26668C26.1037 1.66668 17.0371 1.66668 11.4371 7.26668C5.83706 12.8667 5.83706 21.9333 11.4371 27.5333C17.0371 33.1333 26.1037 33.1333 31.7037 27.5333C37.3037 21.9333 37.3037 12.8667 31.7037 7.26668Z" fill="#003D28"/>
<path d="M4.68152 32.7222L10.6926 26.7111C11.5593 27.5778 11.5593 28.9889 10.6926 29.8556L6.2593 34.2889L4.69263 32.7222H4.68152Z" fill="#003D28"/>
</svg>
