<svg width="24" height="24" viewBox="0 0 24 24" fill="none" xmlns="http://www.w3.org/2000/svg">
<path d="M12.2959 0.887636L12.1838 0.831446L12.0718 0.887636L1.18286 6.34764L1.04492 6.4168V6.57111V22.8889V23.1389H1.29492H23.0727H23.3227V22.8889V6.57111V6.4168L23.1848 6.34764L12.2959 0.887636ZM10.1005 21.0833V15.8889C10.1005 14.7436 11.0385 13.8056 12.1838 13.8056C13.3291 13.8056 14.2671 14.7436 14.2671 15.8889V21.0833H10.1005ZM21.2671 21.0833H16.3227V15.8889C16.3227 13.6042 14.4685 11.75 12.1838 11.75C9.89907 11.75 8.04492 13.6042 8.04492 15.8889V21.0833H3.10048V7.68206L12.1838 3.12525L21.2671 7.68206V21.0833Z" fill="#605D64" stroke="#605D64" stroke-width="0.5"/>
</svg>
