<svg width="28" height="28" viewBox="0 0 28 28" fill="none" xmlns="http://www.w3.org/2000/svg">
<path d="M14.1123 2.88764L14.0002 2.83145L13.8882 2.88764L2.99927 8.34764L2.86133 8.4168V8.57111V24.8889V25.1389H3.11133H24.8891H25.1391V24.8889V8.57111V8.4168L25.0012 8.34764L14.1123 2.88764ZM11.9169 23.0833V17.8889C11.9169 16.7436 12.855 15.8056 14.0002 15.8056C15.1455 15.8056 16.0835 16.7436 16.0835 17.8889V23.0833H11.9169ZM23.0835 23.0833H18.1391V17.8889C18.1391 15.6042 16.285 13.75 14.0002 13.75C11.7155 13.75 9.86133 15.6042 9.86133 17.8889V23.0833H4.91688V9.68206L14.0002 5.12525L23.0835 9.68206V23.0833Z" fill="#605D64" stroke="#605D64" stroke-width="0.5"/>
</svg>
