<svg width="211" height="72" viewBox="0 0 211 72" fill="none" xmlns="http://www.w3.org/2000/svg">
<rect x="0.944458" width="209.556" height="72" rx="12" stroke="#003D28"/>
<path d="M35.714 39.6055C35.714 39.2539 35.6593 38.9414 35.5499 38.668C35.4484 38.3945 35.2648 38.1445 34.9991 37.918C34.7335 37.6914 34.3585 37.4727 33.8741 37.2617C33.3976 37.043 32.7882 36.8203 32.046 36.5938C31.2335 36.3438 30.4835 36.0664 29.796 35.7617C29.1163 35.4492 28.5226 35.0898 28.0148 34.6836C27.507 34.2695 27.1124 33.7969 26.8312 33.2656C26.5499 32.7266 26.4093 32.1055 26.4093 31.4023C26.4093 30.707 26.5538 30.0742 26.8429 29.5039C27.1398 28.9336 27.5577 28.4414 28.0968 28.0273C28.6437 27.6055 29.2882 27.2812 30.0304 27.0547C30.7726 26.8203 31.5929 26.7031 32.4913 26.7031C33.757 26.7031 34.8468 26.9375 35.7609 27.4062C36.6827 27.875 37.3898 28.5039 37.882 29.293C38.382 30.082 38.632 30.9531 38.632 31.9062H35.714C35.714 31.3438 35.5929 30.8477 35.3507 30.418C35.1163 29.9805 34.757 29.6367 34.2726 29.3867C33.796 29.1367 33.1906 29.0117 32.4562 29.0117C31.7609 29.0117 31.1827 29.1172 30.7218 29.3281C30.2609 29.5391 29.9171 29.8242 29.6906 30.1836C29.464 30.543 29.3507 30.9492 29.3507 31.4023C29.3507 31.7227 29.4249 32.0156 29.5734 32.2812C29.7218 32.5391 29.9484 32.7812 30.2531 33.0078C30.5577 33.2266 30.9406 33.4336 31.4015 33.6289C31.8624 33.8242 32.4054 34.0117 33.0304 34.1914C33.9757 34.4727 34.7999 34.7852 35.5031 35.1289C36.2062 35.4648 36.7921 35.8477 37.2609 36.2773C37.7296 36.707 38.0812 37.1953 38.3156 37.7422C38.5499 38.2812 38.6671 38.8945 38.6671 39.582C38.6671 40.3008 38.5226 40.9492 38.2335 41.5273C37.9445 42.0977 37.5304 42.5859 36.9913 42.9922C36.4601 43.3906 35.8195 43.6992 35.0695 43.918C34.3273 44.1289 33.4991 44.2344 32.5851 44.2344C31.7648 44.2344 30.9562 44.125 30.1593 43.9062C29.3702 43.6875 28.6515 43.3555 28.0031 42.9102C27.3546 42.457 26.839 41.8945 26.4562 41.2227C26.0734 40.543 25.882 39.75 25.882 38.8438H28.8234C28.8234 39.3984 28.9171 39.8711 29.1046 40.2617C29.2999 40.6523 29.5695 40.9727 29.9132 41.2227C30.257 41.4648 30.6554 41.6445 31.1085 41.7617C31.5695 41.8789 32.0616 41.9375 32.5851 41.9375C33.2726 41.9375 33.8468 41.8398 34.3077 41.6445C34.7765 41.4492 35.1281 41.1758 35.3624 40.8242C35.5968 40.4727 35.714 40.0664 35.714 39.6055ZM52.4366 41.668V44H43.3781V41.668H52.4366ZM44.2101 26.9375V44H41.2687V26.9375H44.2101ZM51.2531 34.0625V36.3594H43.3781V34.0625H51.2531ZM52.3781 26.9375V29.2812H43.3781V26.9375H52.3781ZM66.007 41.668V44H56.9484V41.668H66.007ZM57.7804 26.9375V44H54.839V26.9375H57.7804ZM64.8234 34.0625V36.3594H56.9484V34.0625H64.8234ZM65.9484 26.9375V29.2812H56.9484V26.9375H65.9484ZM75.5812 26.9375H78.2062L83.1398 40.0977L88.0616 26.9375H90.6866L84.171 44H82.0851L75.5812 26.9375ZM74.3859 26.9375H76.882L77.3156 38.3281V44H74.3859V26.9375ZM89.3859 26.9375H91.8937V44H88.9523V38.3281L89.3859 26.9375ZM108.991 35V35.9375C108.991 37.2266 108.823 38.3828 108.487 39.4062C108.151 40.4297 107.671 41.3008 107.046 42.0195C106.429 42.7383 105.687 43.2891 104.819 43.6719C103.952 44.0469 102.991 44.2344 101.937 44.2344C100.89 44.2344 99.9327 44.0469 99.0656 43.6719C98.2062 43.2891 97.4601 42.7383 96.8273 42.0195C96.1945 41.3008 95.7023 40.4297 95.3507 39.4062C95.007 38.3828 94.8351 37.2266 94.8351 35.9375V35C94.8351 33.7109 95.007 32.5586 95.3507 31.543C95.6945 30.5195 96.1788 29.6484 96.8038 28.9297C97.4366 28.2031 98.1827 27.6523 99.0421 27.2773C99.9093 26.8945 100.866 26.7031 101.913 26.7031C102.968 26.7031 103.929 26.8945 104.796 27.2773C105.663 27.6523 106.409 28.2031 107.034 28.9297C107.659 29.6484 108.14 30.5195 108.476 31.543C108.819 32.5586 108.991 33.7109 108.991 35ZM106.05 35.9375V34.9766C106.05 34.0234 105.956 33.1836 105.769 32.457C105.589 31.7227 105.319 31.1094 104.96 30.6172C104.609 30.1172 104.175 29.7422 103.659 29.4922C103.144 29.2344 102.562 29.1055 101.913 29.1055C101.265 29.1055 100.687 29.2344 100.179 29.4922C99.671 29.7422 99.2374 30.1172 98.8781 30.6172C98.5265 31.1094 98.257 31.7227 98.0695 32.457C97.882 33.1836 97.7882 34.0234 97.7882 34.9766V35.9375C97.7882 36.8906 97.882 37.7344 98.0695 38.4688C98.257 39.2031 98.5304 39.8242 98.8898 40.332C99.257 40.832 99.6945 41.2109 100.202 41.4688C100.71 41.7188 101.288 41.8438 101.937 41.8438C102.593 41.8438 103.175 41.7188 103.683 41.4688C104.191 41.2109 104.62 40.832 104.972 40.332C105.323 39.8242 105.589 39.2031 105.769 38.4688C105.956 37.7344 106.05 36.8906 106.05 35.9375ZM111.933 26.9375H117.968C119.265 26.9375 120.37 27.1328 121.284 27.5234C122.198 27.9141 122.898 28.4922 123.382 29.2578C123.874 30.0156 124.12 30.9531 124.12 32.0703C124.12 32.9219 123.964 33.6719 123.651 34.3203C123.339 34.9688 122.898 35.5156 122.327 35.9609C121.757 36.3984 121.077 36.7383 120.288 36.9805L119.398 37.4141H113.972L113.948 35.082H118.015C118.718 35.082 119.304 34.957 119.773 34.707C120.241 34.457 120.593 34.1172 120.827 33.6875C121.069 33.25 121.191 32.7578 121.191 32.2109C121.191 31.6172 121.073 31.1016 120.839 30.6641C120.612 30.2188 120.261 29.8789 119.784 29.6445C119.308 29.4023 118.702 29.2812 117.968 29.2812H114.874V44H111.933V26.9375ZM121.671 44L117.663 36.3359L120.745 36.3242L124.812 43.8477V44H121.671ZM138.218 41.668V44H129.159V41.668H138.218ZM129.991 26.9375V44H127.05V26.9375H129.991ZM137.034 34.0625V36.3594H129.159V34.0625H137.034ZM138.159 26.9375V29.2812H129.159V26.9375H138.159Z" fill="#48464C"/>
<path d="M184.998 34.5869L176.239 25.8271L174.163 27.9177L180.832 34.5869H162.944V37.5313H180.891L174.339 44.0827L176.415 46.1733L185.057 37.5313L186.5 36.0885L184.998 34.5869Z" fill="#48464C"/>
</svg>
