<svg width="211" height="73" viewBox="0 0 211 73" fill="none" xmlns="http://www.w3.org/2000/svg">
<rect x="0.484375" y="0.827148" width="209.556" height="72" rx="12" stroke="#003D28"/>
<path d="M35.2539 40.4326C35.2539 40.0811 35.1992 39.7686 35.0898 39.4951C34.9883 39.2217 34.8047 38.9717 34.5391 38.7451C34.2734 38.5186 33.8984 38.2998 33.4141 38.0889C32.9375 37.8701 32.3281 37.6475 31.5859 37.4209C30.7734 37.1709 30.0234 36.8936 29.3359 36.5889C28.6562 36.2764 28.0625 35.917 27.5547 35.5107C27.0469 35.0967 26.6523 34.624 26.3711 34.0928C26.0898 33.5537 25.9492 32.9326 25.9492 32.2295C25.9492 31.5342 26.0938 30.9014 26.3828 30.3311C26.6797 29.7607 27.0977 29.2686 27.6367 28.8545C28.1836 28.4326 28.8281 28.1084 29.5703 27.8818C30.3125 27.6475 31.1328 27.5303 32.0312 27.5303C33.2969 27.5303 34.3867 27.7646 35.3008 28.2334C36.2227 28.7021 36.9297 29.3311 37.4219 30.1201C37.9219 30.9092 38.1719 31.7803 38.1719 32.7334H35.2539C35.2539 32.1709 35.1328 31.6748 34.8906 31.2451C34.6562 30.8076 34.2969 30.4639 33.8125 30.2139C33.3359 29.9639 32.7305 29.8389 31.9961 29.8389C31.3008 29.8389 30.7227 29.9443 30.2617 30.1553C29.8008 30.3662 29.457 30.6514 29.2305 31.0107C29.0039 31.3701 28.8906 31.7764 28.8906 32.2295C28.8906 32.5498 28.9648 32.8428 29.1133 33.1084C29.2617 33.3662 29.4883 33.6084 29.793 33.835C30.0977 34.0537 30.4805 34.2607 30.9414 34.4561C31.4023 34.6514 31.9453 34.8389 32.5703 35.0186C33.5156 35.2998 34.3398 35.6123 35.043 35.9561C35.7461 36.292 36.332 36.6748 36.8008 37.1045C37.2695 37.5342 37.6211 38.0225 37.8555 38.5693C38.0898 39.1084 38.207 39.7217 38.207 40.4092C38.207 41.1279 38.0625 41.7764 37.7734 42.3545C37.4844 42.9248 37.0703 43.4131 36.5312 43.8193C36 44.2178 35.3594 44.5264 34.6094 44.7451C33.8672 44.9561 33.0391 45.0615 32.125 45.0615C31.3047 45.0615 30.4961 44.9521 29.6992 44.7334C28.9102 44.5146 28.1914 44.1826 27.543 43.7373C26.8945 43.2842 26.3789 42.7217 25.9961 42.0498C25.6133 41.3701 25.4219 40.5771 25.4219 39.6709H28.3633C28.3633 40.2256 28.457 40.6982 28.6445 41.0889C28.8398 41.4795 29.1094 41.7998 29.4531 42.0498C29.7969 42.292 30.1953 42.4717 30.6484 42.5889C31.1094 42.7061 31.6016 42.7646 32.125 42.7646C32.8125 42.7646 33.3867 42.667 33.8477 42.4717C34.3164 42.2764 34.668 42.0029 34.9023 41.6514C35.1367 41.2998 35.2539 40.8936 35.2539 40.4326ZM51.9766 42.4951V44.8271H42.918V42.4951H51.9766ZM43.75 27.7646V44.8271H40.8086V27.7646H43.75ZM50.793 34.8896V37.1865H42.918V34.8896H50.793ZM51.918 27.7646V30.1084H42.918V27.7646H51.918ZM65.5469 42.4951V44.8271H56.4883V42.4951H65.5469ZM57.3203 27.7646V44.8271H54.3789V27.7646H57.3203ZM64.3633 34.8896V37.1865H56.4883V34.8896H64.3633ZM65.4883 27.7646V30.1084H56.4883V27.7646H65.4883ZM75.1211 27.7646H77.7461L82.6797 40.9248L87.6016 27.7646H90.2266L83.7109 44.8271H81.625L75.1211 27.7646ZM73.9258 27.7646H76.4219L76.8555 39.1553V44.8271H73.9258V27.7646ZM88.9258 27.7646H91.4336V44.8271H88.4922V39.1553L88.9258 27.7646ZM108.531 35.8271V36.7646C108.531 38.0537 108.363 39.21 108.027 40.2334C107.691 41.2568 107.211 42.1279 106.586 42.8467C105.969 43.5654 105.227 44.1162 104.359 44.499C103.492 44.874 102.531 45.0615 101.477 45.0615C100.43 45.0615 99.4727 44.874 98.6055 44.499C97.7461 44.1162 97 43.5654 96.3672 42.8467C95.7344 42.1279 95.2422 41.2568 94.8906 40.2334C94.5469 39.21 94.375 38.0537 94.375 36.7646V35.8271C94.375 34.5381 94.5469 33.3857 94.8906 32.3701C95.2344 31.3467 95.7188 30.4756 96.3438 29.7568C96.9766 29.0303 97.7227 28.4795 98.582 28.1045C99.4492 27.7217 100.406 27.5303 101.453 27.5303C102.508 27.5303 103.469 27.7217 104.336 28.1045C105.203 28.4795 105.949 29.0303 106.574 29.7568C107.199 30.4756 107.68 31.3467 108.016 32.3701C108.359 33.3857 108.531 34.5381 108.531 35.8271ZM105.59 36.7646V35.8037C105.59 34.8506 105.496 34.0107 105.309 33.2842C105.129 32.5498 104.859 31.9365 104.5 31.4443C104.148 30.9443 103.715 30.5693 103.199 30.3193C102.684 30.0615 102.102 29.9326 101.453 29.9326C100.805 29.9326 100.227 30.0615 99.7188 30.3193C99.2109 30.5693 98.7773 30.9443 98.418 31.4443C98.0664 31.9365 97.7969 32.5498 97.6094 33.2842C97.4219 34.0107 97.3281 34.8506 97.3281 35.8037V36.7646C97.3281 37.7178 97.4219 38.5615 97.6094 39.2959C97.7969 40.0303 98.0703 40.6514 98.4297 41.1592C98.7969 41.6592 99.2344 42.0381 99.7422 42.2959C100.25 42.5459 100.828 42.6709 101.477 42.6709C102.133 42.6709 102.715 42.5459 103.223 42.2959C103.73 42.0381 104.16 41.6592 104.512 41.1592C104.863 40.6514 105.129 40.0303 105.309 39.2959C105.496 38.5615 105.59 37.7178 105.59 36.7646ZM111.473 27.7646H117.508C118.805 27.7646 119.91 27.96 120.824 28.3506C121.738 28.7412 122.438 29.3193 122.922 30.085C123.414 30.8428 123.66 31.7803 123.66 32.8975C123.66 33.749 123.504 34.499 123.191 35.1475C122.879 35.7959 122.438 36.3428 121.867 36.7881C121.297 37.2256 120.617 37.5654 119.828 37.8076L118.938 38.2412H113.512L113.488 35.9092H117.555C118.258 35.9092 118.844 35.7842 119.312 35.5342C119.781 35.2842 120.133 34.9443 120.367 34.5146C120.609 34.0771 120.73 33.585 120.73 33.0381C120.73 32.4443 120.613 31.9287 120.379 31.4912C120.152 31.0459 119.801 30.7061 119.324 30.4717C118.848 30.2295 118.242 30.1084 117.508 30.1084H114.414V44.8271H111.473V27.7646ZM121.211 44.8271L117.203 37.1631L120.285 37.1514L124.352 44.6748V44.8271H121.211ZM137.758 42.4951V44.8271H128.699V42.4951H137.758ZM129.531 27.7646V44.8271H126.59V27.7646H129.531ZM136.574 34.8896V37.1865H128.699V34.8896H136.574ZM137.699 27.7646V30.1084H128.699V27.7646H137.699Z" fill="#48464C"/>
<path d="M184.538 35.414L175.779 26.6543L173.703 28.7449L180.372 35.414H162.484V38.3585H180.431L173.879 44.9099L175.955 47.0004L184.597 38.3585L186.04 36.9157L184.538 35.414Z" fill="#48464C"/>
</svg>
