<svg width="79" height="58" viewBox="0 0 79 58" fill="none" xmlns="http://www.w3.org/2000/svg">
<path fill-rule="evenodd" clip-rule="evenodd" d="M65.5258 16.1794H56.1158L55.7221 15.6794L55.039 11.0562C56.8891 11.0678 58.9558 11.2824 61.3453 11.7116C62.5633 11.932 63.7735 12.3051 65.032 12.8484L65.5258 16.1794ZM73.3245 16.1794C72.3322 15.8048 71.2295 15.1381 70.0199 14.4066L69.9714 14.3774C68.7753 13.6559 67.4342 12.8469 65.9407 12.1621V12.1582L65.6913 12.048H65.6874L64.8619 11.6768V11.7C63.7348 11.2496 62.6329 10.9287 61.5193 10.7295C59.0118 10.2791 56.8408 10.0606 54.8901 10.0625V10.0548L54.4532 10.0625H54.4512L53.8848 10.0722V10.0819C53.0161 10.1172 52.2267 10.1973 51.4891 10.3039L43.8531 0.606877C43.3098 -0.0833013 42.3084 -0.203163 41.6182 0.34202L40.667 1.09213C39.9768 1.63538 39.857 2.63682 40.4022 3.327L46.6685 11.2844C45.296 11.561 43.7905 11.783 41.8966 11.8064H41.8946C39.7584 11.8334 37.3321 11.6034 34.4786 11.1007C33.846 10.9891 33.1999 10.8964 32.5434 10.8221L38.4457 3.327C38.9889 2.63682 38.871 1.63538 38.1808 1.09213L37.2297 0.34202C36.5395 -0.20123 35.538 -0.0833013 34.9948 0.606877L27.1185 10.609C25.7542 10.6517 24.3547 10.7643 22.9369 10.9441V10.9403L22.2758 11.0331H22.2738L21.9065 11.0833V11.0872C18.6915 11.5608 15.3024 12.3844 11.8148 13.5347V13.525L11.0396 13.7918H11.0376L10.7535 13.8885V13.8924C8.82987 14.5593 6.87745 15.3242 4.91153 16.1794H1.48342C0.576711 16.1794 -0.1154 17.2292 0.0160627 18.3988L0.828037 25.5654C0.9363 26.5127 1.56075 27.2165 2.29539 27.2165H76.5563C77.2929 27.2165 77.9173 26.5127 78.0237 25.5654L78.8356 18.3988C78.971 17.2292 78.275 16.1794 77.3721 16.1794H77.3683H73.3245ZM11.4155 16.1794H21.1459L21.5102 13.7068L21.746 12.1157C18.5291 12.6087 15.1362 13.4574 11.6447 14.6347L11.4155 16.1794ZM28.9948 16.1813H41.9675L41.8695 15.5202L41.4693 12.8059C39.3775 12.7962 37.0247 12.5603 34.2988 12.0809C33.4909 11.9375 32.6618 11.8262 31.8161 11.7457L29.1499 15.1314L28.9948 16.1813ZM21.8524 23.2378C21.0017 23.2378 20.3135 22.5495 20.3135 21.6989C20.3135 20.8483 21.0017 20.16 21.8524 20.16C22.703 20.16 23.3913 20.8483 23.3913 21.6989C23.3913 22.5495 22.703 23.2378 21.8524 23.2378ZM56.9916 23.2378C56.1409 23.2378 55.4527 22.5495 55.4527 21.6989C55.4527 20.8483 56.1409 20.16 56.9916 20.16C57.8422 20.16 58.5305 20.8483 58.5305 21.6989C58.5305 22.5495 57.8422 23.2378 56.9916 23.2378ZM19.5382 28.736H27.4917V31.9877H35.4452V35.2394H27.4917V31.9878H19.5382V28.736ZM11.5848 28.7379H3.63129L3.96768 31.9878H11.5828V35.2394H19.5363V31.9877H11.5848V28.7379ZM11.5848 35.2395H4.306L4.64239 38.4894H11.5848V35.2395ZM11.5848 41.7412H19.5363V38.4894H11.5828V41.741H4.97883L5.31522 44.9909H11.5848V41.7412ZM11.5848 51.4944V48.2427H19.5383L19.5382 51.4944H27.4917L27.4917 48.2447H35.4452V44.9929H27.4917L27.4917 48.2427L19.5383 48.2427L19.5382 44.9928H27.4917L27.4917 41.7412H35.4452V38.4894H27.4917L27.4917 35.2395H19.5382V38.4913H27.4917V41.741H19.5382L19.5383 44.9909H11.5848V48.2427H5.65735L5.99374 51.4964H11.5848V54.7462H6.33013L6.51959 56.5712C6.60272 57.3813 7.2871 57.998 8.10294 57.998H11.5867V54.7462H19.5402V51.4944H11.5867H11.5848ZM74.8763 31.9878H67.2611V35.2394H67.2592H59.3057V31.9877H67.2592L67.2592 28.7379H75.2127L74.8763 31.9878ZM67.2592 38.4894H74.2016L74.538 35.2395H67.2592V38.4894ZM73.5288 44.9909H67.2592L67.2592 41.7412H59.3057V38.4894H67.2592H67.2611V41.741H73.8652L73.5288 44.9909ZM67.2611 44.9929H59.3076V48.2447H67.2611V51.4964H59.3076V54.7482H67.2611V58H70.7449C71.5607 58 72.2432 57.3832 72.3282 56.5732L72.5177 54.7482H67.2631V51.4984H72.8541L73.1905 48.2447H67.2631V44.9929H67.2611ZM19.5382 54.7463H27.4917L27.4917 51.4946H35.4452V54.7464H27.4917L27.4917 57.998H19.5382V54.7463ZM43.3988 28.736H35.4453V31.9878H43.3988L43.3988 35.2394H51.3522V31.9878H59.3057V28.736H51.3522V31.9877H43.3988L43.3988 28.736ZM35.4453 35.2395H43.3988L43.3988 38.4894H51.3522V35.2395H59.3057V38.4913H51.3522V41.741H59.3057V44.9928H51.3522V41.7412H43.3988L43.3988 44.9928H35.4453V41.741H43.3988V38.4913H35.4453V35.2395ZM35.4453 48.2427H43.3988L43.3988 44.9929H51.3522V48.2427H59.3057V51.4944H51.3522V48.2447H43.3988L43.3988 51.4944H35.4453V48.2427ZM43.3988 54.7463H35.4453V57.998H43.3988L43.3988 54.7464H51.3522V57.998H59.3057V54.7463H51.3522V51.4946H43.3988L43.3988 54.7463Z" fill="#FF2B37"/>
</svg>
