<svg width="33" height="32" viewBox="0 0 33 32" fill="none" xmlns="http://www.w3.org/2000/svg">
<path d="M22.0554 2.66656V0.444336H19.8332V2.66656H13.1666V0.444336H10.9443V2.66656H0.944336V31.5554H20.9443C23.4443 31.5554 25.7443 30.7332 27.5999 29.3332C28.4443 28.6999 29.1999 27.9443 29.8332 27.0999C31.2332 25.2443 32.0554 22.9443 32.0554 20.4443V2.66656H22.0554ZM3.16656 4.89989H10.9443V7.12211H13.1666V4.89989H19.8332V7.12211H22.0554V4.89989H29.8332V9.35545H3.16656V4.89989ZM19.8332 11.5666V19.3888H13.1666V11.5666H19.8332ZM10.9443 11.5666V19.3888H3.16656V11.5666H10.9443ZM3.16656 21.611H10.9443V29.3332H3.16656V21.611ZM15.4777 29.3332H13.1666V21.611H19.8332V29.3332H15.4777ZM22.0554 29.2554V21.611H29.7443C29.211 25.5999 26.0443 28.7554 22.0554 29.2554ZM29.8332 19.3888H22.0554V11.5666H29.8332V19.3888Z" fill="#003D28"/>
</svg>
