<svg width="49" height="48" viewBox="0 0 49 48" fill="none" xmlns="http://www.w3.org/2000/svg">
<path d="M37.2352 10.8C30.5952 4.16005 20.1685 3.57338 12.8485 9.04005L14.7685 10.96C21.0085 6.50671 29.7552 7.08005 35.3552 12.68C40.9552 18.28 41.5285 27.0267 37.0752 33.2667L38.9952 35.1867C44.4618 27.8667 43.8752 17.44 37.2352 10.8Z" fill="#BCF800"/>
<path d="M35.1685 31.3468C38.5951 26.1735 38.0218 19.1068 33.4751 14.5602C28.9285 10.0135 21.8618 9.44015 16.6885 12.8668L18.6218 14.8002C22.7285 12.4002 28.0751 12.9468 31.5951 16.4535C35.1018 19.9602 35.6485 25.3202 33.2485 29.4268L35.1818 31.3602L35.1685 31.3468Z" fill="#BCF800"/>
<path d="M23.1018 30.6L17.4485 24.9466L21.2218 21.1733L10.8352 10.7866C3.54184 18.08 3.54184 29.9066 10.8352 37.1866C18.1285 44.4666 29.9552 44.48 37.2352 37.1866L26.8618 26.8133L23.0885 30.5866L23.1018 30.6ZM12.7285 35.3066C7.12851 29.7066 6.56851 20.9733 11.0085 14.7333L17.4485 21.1733L13.6752 24.9466L23.1018 34.3733L26.8752 30.6L33.3018 37.0266C27.0485 41.4666 18.3285 40.9066 12.7285 35.3066Z" fill="#BCF800"/>
</svg>
