 <svg
                    width="40"
                    height="40"
                    viewBox="0 0 40 40"
                    fill="none"
                    xmlns="http://www.w3.org/2000/svg"
                  >
                    <path
                      d="M33.2666 10.0666H25.5554V9.99989C25.5554 6.93322 23.0666 4.44434 19.9999 4.44434C16.9332 4.44434 14.4443 6.93322 14.4443 9.99989V10.0666H4.44434V12.2777H6.66656L10.6999 35.5554H29.2999L33.3332 12.2777H35.5554V10.0666H33.2666ZM16.6666 9.99989C16.6666 8.16656 18.1666 6.66656 19.9999 6.66656C21.8332 6.66656 23.3332 8.16656 23.3332 9.99989V10.0666H16.6666V9.99989ZM27.4332 33.3332H12.5666L8.94434 12.2777H31.0554L27.4332 33.3332Z"
                      fill="#FF2B37"
                    />
                    <path
                      d="M16.6666 14.5H14.4443V31.0889H16.6666V14.5Z"
                      fill="#FF2B37"
                    />
                    <path
                      d="M25.5552 14.5H23.333V31.0889H25.5552V14.5Z"
                      fill="#FF2B37"
                    />
                  </svg>