<svg width="67" height="58" viewBox="0 0 67 58" fill="none" xmlns="http://www.w3.org/2000/svg">
<path d="M66.1352 26.7584C66.1352 26.6636 66.141 26.5708 66.141 26.478H66.0134C63.7457 21.293 59.6162 17.1056 54.4737 14.7682C51.1852 6.14006 42.8335 0 33.0705 0C23.3075 0 14.9558 6.14006 11.6673 14.7682C6.52478 17.1056 2.39532 21.293 0.127596 26.478H0C0 26.5728 0.00386736 26.6656 0.00386736 26.7584C0.00386736 26.7622 0 26.7661 0 26.77H0.00579957C0.0115994 27.4524 0.0347985 28.1329 0.0811969 28.8057C0.154661 29.8516 0.276457 30.8859 0.446585 31.9047C2.1092 41.9829 8.33046 50.524 16.9219 55.3418V58H49.2172V55.3418C57.8086 50.524 64.0318 41.9829 65.6925 31.9047C65.8626 30.8859 65.9844 29.8535 66.0579 28.8076C66.1043 28.1349 66.1275 27.4563 66.1333 26.7719H66.1391C66.1391 26.7719 66.1352 26.7642 66.1333 26.7603L66.1352 26.7584ZM55.6569 19.1297C58.4814 20.9566 60.8052 23.4892 62.3827 26.478H58.5742C55.6279 22.1321 50.6497 19.2689 45.0278 19.2689C40.3203 19.2689 36.0593 21.2756 33.0705 24.4829C32.4886 25.1054 31.9589 25.7724 31.4794 26.478H27.6709C27.9551 25.9367 28.2644 25.4089 28.5988 24.9005C29.1982 23.9841 29.869 23.1219 30.6114 22.3215C31.3654 21.5018 32.1889 20.7498 33.0705 20.0693C33.9772 19.3694 34.9458 18.7469 35.9685 18.2172C38.445 16.92 41.2347 16.1409 44.1907 16.0152C44.4671 16.0036 44.7474 15.9978 45.0258 15.9978C46.035 15.9978 47.0268 16.0751 47.9973 16.2221C49.3312 16.4251 50.6207 16.7614 51.8503 17.2196C53.1939 17.7184 54.4679 18.3622 55.6549 19.1278L55.6569 19.1297ZM33.0705 16.1041C30.5147 14.5324 27.6303 13.4478 24.5429 12.9819C26.8357 11.0061 29.8149 9.80941 33.0705 9.81134C36.3281 9.81134 39.3072 11.0061 41.6001 12.9819C38.5146 13.4478 35.6282 14.5324 33.0724 16.1041H33.0705ZM33.0705 3.27109C40.4189 3.27109 46.8315 7.32322 50.1915 13.3144C48.7976 12.9935 47.3574 12.7982 45.8803 12.7441C42.8799 8.96844 38.2478 6.54218 33.0724 6.54218C27.8971 6.54218 23.265 8.96844 20.2645 12.7441C18.7875 12.8002 17.3453 12.9935 15.9533 13.3144C19.3134 7.32515 25.726 3.27109 33.0744 3.27109H33.0705ZM10.4841 19.1297C11.6711 18.3641 12.9452 17.7203 14.2888 17.2216C15.5203 16.7614 16.8098 16.4251 18.1437 16.224C19.1123 16.0751 20.106 15.9997 21.1152 15.9997C21.3955 15.9997 21.6739 16.0055 21.9503 16.0171C24.9063 16.1428 27.696 16.9219 30.1745 18.2191C29.2948 18.9712 28.4713 19.7889 27.7153 20.6647C25.6951 19.7696 23.4602 19.2708 21.1152 19.2708C15.4932 19.2708 10.515 22.134 7.56875 26.48H3.76021C5.33776 23.4911 7.66154 20.9586 10.486 19.1316L10.4841 19.1297ZM11.7717 26.478C14.1496 24.0479 17.4574 22.54 21.1152 22.54C22.7275 22.54 24.2722 22.8338 25.6989 23.3674C25.0706 24.3553 24.5216 25.3954 24.0479 26.478H11.7736H11.7717ZM35.6862 26.478C38.0622 24.0499 41.37 22.54 45.0278 22.54C48.6855 22.54 51.9933 24.0499 54.3713 26.478H35.6881H35.6862Z" fill="#750046"/>
</svg>
