<svg width="49" height="48" viewBox="0 0 49 48" fill="none" xmlns="http://www.w3.org/2000/svg">
<path d="M14.9553 0C7.20815 0 0.841675 6.35796 0.841675 14.1136V33.8864C0.841675 41.6335 7.19963 48 14.9553 48H34.728C42.4752 48 48.8417 41.642 48.8417 33.8864V14.1136C48.8417 6.36648 42.4837 0 34.728 0H14.9553ZM14.9553 4.36364H34.728C40.1229 4.36364 44.478 8.71875 44.478 14.1136V33.8864C44.478 39.2812 40.1229 43.6364 34.728 43.6364H14.9553C9.56043 43.6364 5.20531 39.2812 5.20531 33.8864V14.1136C5.20531 8.71875 9.56043 4.36364 14.9553 4.36364ZM37.728 9.13636C36.6286 9.13636 35.7508 10.0142 35.7508 11.1136C35.7508 12.2131 36.6286 13.0909 37.728 13.0909C38.8275 13.0909 39.7053 12.2131 39.7053 11.1136C39.7053 10.0142 38.8275 9.13636 37.728 9.13636ZM24.8417 10.9091C17.64 10.9091 11.7508 16.7983 11.7508 24C11.7508 31.2017 17.64 37.0909 24.8417 37.0909C32.0434 37.0909 37.9326 31.2017 37.9326 24C37.9326 16.7983 32.0434 10.9091 24.8417 10.9091ZM24.8417 15.2727C29.6911 15.2727 33.5689 19.1506 33.5689 24C33.5689 28.8494 29.6911 32.7273 24.8417 32.7273C19.9922 32.7273 16.1144 28.8494 16.1144 24C16.1144 19.1506 19.9922 15.2727 24.8417 15.2727Z" fill="white"/>
</svg>
