<svg width="92" height="58" viewBox="0 0 92 58" fill="none" xmlns="http://www.w3.org/2000/svg">
<path d="M62.3535 0C54.3671 0 47.1367 3.23049 41.8937 8.44452H14.9323C13.1228 8.44452 11.7907 10.024 12.2199 11.6634L13.8593 17.9407C14.1648 19.1084 15.2861 19.932 16.5717 19.932H34.8063C34.4545 20.9953 34.1606 22.0876 33.9305 23.2031H2.79331C0.983769 23.2031 -0.348253 24.7826 0.0809327 26.4278L1.72034 32.7051C2.0258 33.8728 3.1471 34.6906 4.43272 34.6906H33.9131C34.1413 35.8409 34.4409 36.9699 34.8063 38.068H14.2054C12.3959 38.068 11.0638 39.6475 11.493 41.2869L13.1247 47.5642C13.4302 48.7338 14.5515 49.5555 15.8429 49.5555H41.8937C47.1386 54.7695 54.3671 58 62.3535 58C78.3687 58 91.3525 45.0162 91.3525 29.001C91.3525 12.9858 78.3687 0.00193221 62.3535 0.00193221V0ZM74.4325 13.5889L75.8593 9.00323C76.0526 8.38072 76.7099 8.04046 77.3266 8.22799C77.9491 8.42132 78.2952 9.07863 78.1019 9.70114L76.6751 14.2869C76.5224 14.7856 76.0584 15.1085 75.5538 15.1085C75.4417 15.1085 75.3257 15.0911 75.2078 15.0563C74.5853 14.8688 74.245 14.2115 74.4325 13.5889ZM74.4441 30.2905C74.6548 29.6795 75.3257 29.3509 75.9366 29.5616L80.4817 31.1295C81.0926 31.3402 81.4213 32.0053 81.2106 32.622C81.0404 33.1092 80.5822 33.4146 80.0951 33.4146C79.9713 33.4146 79.8418 33.3914 79.7142 33.3508L75.1749 31.7887C74.564 31.578 74.2353 30.9072 74.4461 30.2905H74.4441ZM67.3684 12.3845C67.9077 12.0327 68.6366 12.1854 68.9884 12.7306L71.6022 16.7595C71.9541 17.3066 71.7955 18.0335 71.2562 18.3854C71.057 18.5091 70.8328 18.5729 70.6162 18.5729C70.2354 18.5729 69.8526 18.3854 69.6303 18.0393L67.0165 14.0046C66.6646 13.4652 66.8232 12.7364 67.3684 12.3845ZM71.4205 28.999C71.4205 33.9965 67.351 38.0661 62.3535 38.0661C57.356 38.0661 53.2864 33.9965 53.2864 28.999C53.2864 24.0015 57.356 19.932 62.3535 19.932C67.351 19.932 71.4205 23.9957 71.4205 28.999ZM60.2501 3.40642C60.2501 2.76071 60.7778 2.23099 61.4255 2.23099C62.0731 2.23099 62.6009 2.75877 62.6009 3.40642V8.21059C62.6009 8.8563 62.0789 9.38602 61.4255 9.38602C60.772 9.38602 60.2501 8.85824 60.2501 8.21059V3.40642ZM54.4251 14.9461L59.2235 15.1684C59.8692 15.1974 60.368 15.7445 60.339 16.3961C60.31 17.0244 59.7919 17.5173 59.1713 17.5173C59.1481 17.5173 59.1307 17.5173 59.1133 17.5115L54.3149 17.295C53.6692 17.266 53.1704 16.7131 53.1994 16.0674C53.2284 15.4217 53.7813 14.9287 54.4271 14.9461H54.4251ZM43.0266 19.8721V24.6762C43.0266 25.322 42.4988 25.8517 41.8511 25.8517C41.2035 25.8517 40.6757 25.3239 40.6757 24.6762V19.8721C40.6757 19.2264 41.1977 18.6966 41.8511 18.6966C42.5046 18.6966 43.0266 19.2244 43.0266 19.8721ZM43.4596 40.9331C43.2895 41.0162 43.1078 41.0568 42.9318 41.0568C42.5027 41.0568 42.0928 40.821 41.8801 40.4111L40.6989 38.068L39.7187 36.1251C39.4655 35.6263 39.6066 35.027 40.0242 34.6925C40.088 34.6403 40.1595 34.592 40.2349 34.5514C40.6699 34.3349 41.1687 34.4045 41.5205 34.6925C41.6385 34.793 41.7371 34.9206 41.8144 35.0676L43.3301 38.068L43.9758 39.3536C44.2697 39.9355 44.0396 40.6392 43.4596 40.9331ZM46.6785 10.8224L50.0385 7.38702C50.4909 6.92304 51.2372 6.91723 51.7011 7.36962C52.1651 7.822 52.1709 8.56825 51.7185 9.03223L48.3643 12.4676C48.1304 12.7016 47.8249 12.8195 47.5253 12.8195C47.2256 12.8195 46.9318 12.7074 46.7036 12.485C46.2397 12.0327 46.2281 11.2864 46.6804 10.8224H46.6785ZM46.8776 28.5408L49.4682 24.7168L49.5746 24.5641C49.938 24.0305 50.6668 23.8836 51.2062 24.2529C51.7398 24.6105 51.8809 25.3451 51.5175 25.8787L50.2957 27.6767L48.8225 29.8555C48.6002 30.1899 48.229 30.3717 47.8539 30.3717C47.6239 30.3717 47.3958 30.3079 47.1966 30.1725C46.6572 29.8091 46.5161 29.0744 46.8796 28.5408H46.8776ZM50.9472 45.7953L49.9612 49.5535L49.7253 50.4409C49.5842 50.9687 49.1086 51.3167 48.5924 51.3167C48.4919 51.3167 48.3933 51.3051 48.2928 51.2761C47.6645 51.1118 47.2894 50.4718 47.4538 49.8435L47.5291 49.5555L48.6736 45.1979C48.838 44.5696 49.4779 44.1945 50.1062 44.3647C50.7345 44.529 51.1096 45.1689 50.9452 45.7972L50.9472 45.7953ZM55.5522 42.0119C55.4285 42.0119 55.299 41.9887 55.1714 41.9481L53.9089 41.5131L50.6321 40.3802C50.0211 40.1695 49.6925 39.5044 49.9032 38.8877C50.1139 38.2768 50.7848 37.9481 51.3957 38.1589L52.3411 38.4817L52.3585 38.4933L55.9408 39.7209C56.5517 39.9317 56.8804 40.6025 56.6696 41.2192C56.4995 41.7006 56.0413 42.0119 55.5542 42.0119H55.5522ZM62.5236 51.7729L57.9843 53.3408C57.8547 53.3814 57.7252 53.4046 57.5957 53.4046C57.1085 53.4046 56.6561 53.0992 56.486 52.612C56.2753 51.9953 56.6039 51.3322 57.2148 51.1195L61.7599 49.5516C62.3709 49.3409 63.0398 49.6695 63.2524 50.2805C63.4632 50.8972 63.1345 51.5661 62.5236 51.7729ZM69.9454 45.8533C69.7521 45.9828 69.5278 46.0408 69.3113 46.0408C68.9246 46.0408 68.5477 45.8533 68.3253 45.5072L65.7115 41.4783C65.3597 40.9312 65.5124 40.2043 66.0576 39.8524C66.6028 39.5005 67.3316 39.6591 67.6835 40.1985L70.2915 44.2332C70.6433 44.7726 70.4906 45.5014 69.9454 45.8533ZM76.6519 51.8019L72.1068 53.3698C71.9831 53.4104 71.8535 53.4336 71.7259 53.4336C71.2388 53.4336 70.7864 53.1282 70.6162 52.641C70.4055 52.0243 70.7342 51.3554 71.3451 51.1427L75.8844 49.5806C76.5011 49.3699 77.17 49.6985 77.3827 50.3095C77.5934 50.9262 77.2648 51.5893 76.6538 51.8019H76.6519ZM83.2946 42.4005L78.7553 43.9625C78.6258 44.0089 78.4963 44.0263 78.3687 44.0263C77.8815 44.0263 77.4291 43.7209 77.259 43.2337C77.0482 42.6228 77.3769 41.9539 77.9878 41.7412L82.5329 40.1791C83.1438 39.9684 83.8127 40.2971 84.0254 40.908C84.2361 41.5189 83.9075 42.1878 83.2966 42.4005H83.2946ZM81.0211 24.1659C80.8974 24.2123 80.7678 24.2297 80.6402 24.2297C80.1531 24.2297 79.7007 23.9242 79.5305 23.437C79.3198 22.8261 79.6485 22.1572 80.2594 21.9445L84.7987 20.3825C85.4154 20.1717 86.0785 20.4946 86.2912 21.1113C86.5019 21.7222 86.1791 22.3911 85.5624 22.6038L81.023 24.1659H81.0211ZM87.0703 33.1865H87.0645C86.4188 33.1865 85.8891 32.6703 85.8891 32.0246L85.8543 27.2204C85.8485 26.5747 86.3705 26.0392 87.0162 26.0392H87.0278C87.6735 26.0392 88.1955 26.5554 88.2032 27.2011L88.238 32.0053C88.238 32.651 87.716 33.1865 87.0703 33.1865Z" fill="#F36800"/>
</svg>
