<svg width="343" height="72" viewBox="0 0 343 72" fill="none" xmlns="http://www.w3.org/2000/svg">
<path d="M167.363 23.9361C167.305 23.9826 167.243 24.0329 167.181 24.0794C165.66 25.3102 164.139 27.5939 163.318 31.5071V22.9453H157.412V47.7329H163.318V35.9739C164.162 25.8947 171.338 27.3346 172.635 27.9307V22.2021C171.253 22.2524 169.221 22.5234 167.367 23.94L167.363 23.9361Z" fill="#003D28"/>
<path d="M283.266 42.0508C282.891 42.5733 281.745 44.1642 278.227 44.1642C274.205 44.1642 271.608 40.758 271.608 35.4862C271.608 30.2143 274.205 26.8082 278.227 26.8082C281.699 26.8082 282.883 28.5616 283.274 29.1383C283.692 29.7537 284.029 30.5162 284.288 31.3755H290.303C289.107 26.3592 285.461 22.0511 278.23 22.0511C271 22.0511 265.701 27.1797 265.701 35.3507C265.701 43.5216 271.31 48.6503 278.23 48.6503C285.151 48.6503 289.138 44.7603 290.334 39.3839H284.42C284.153 40.4561 283.766 41.3618 283.274 42.0469L283.266 42.0508Z" fill="#003D28"/>
<path d="M242.148 22.1866C237.739 22.1866 234.519 26.0379 233.292 30.8801V22.9414H227.397V57.9127H233.292V39.9452C234.519 44.9073 237.739 48.3406 242.148 48.3406C247.838 48.3406 252.448 42.8327 252.448 35.4862C252.448 28.1397 247.838 22.1866 242.148 22.1866ZM239.857 43.1113C236.71 43.1113 233.304 40.3438 233.292 35.3933V35.3429C233.304 30.3924 236.71 27.4971 239.857 27.4971C243.004 27.4971 246.537 30.5201 246.537 35.4862C246.537 40.4522 243.011 43.1113 239.857 43.1113Z" fill="#003D28"/>
<path d="M215.119 33.218C212.305 32.9548 207.293 33.307 207.293 29.2118C207.293 28.4067 207.881 26.0224 212.154 26.0224C216.428 26.0224 217.693 27.532 217.821 30.8027H223.693C223.445 25.3722 219.408 21.6679 211.342 21.6679C205.617 21.6679 201.417 25.2522 201.417 29.2544C201.417 37.2435 209.251 37.2047 210.378 37.2976C212.216 37.4486 217.833 37.5802 217.833 41.2457C217.833 44.2339 213.772 44.5745 212.542 44.5745C210.858 44.5745 206.631 43.2701 206.631 39.3607H200.755C200.755 40.5683 201.417 48.6503 212.449 48.6503C214.225 48.6503 223.705 48.6503 223.705 40.8199C223.705 33.9728 216.075 33.307 215.119 33.218Z" fill="#003D28"/>
<path d="M334.285 33.218C331.471 32.9548 326.459 33.307 326.459 29.2118C326.459 28.4067 327.047 26.0224 331.32 26.0224C335.594 26.0224 336.859 27.532 336.987 30.8027H342.859C342.611 25.3722 338.574 21.6679 330.507 21.6679C324.783 21.6679 320.583 25.2522 320.583 29.2544C320.583 37.2435 328.417 37.2047 329.544 37.2976C331.382 37.4486 336.999 37.5802 336.999 41.2457C336.999 44.2339 332.938 44.5745 331.707 44.5745C330.024 44.5745 325.797 43.2701 325.797 39.3607H319.921C319.921 40.5683 320.583 48.6503 331.614 48.6503C333.391 48.6503 342.87 48.6503 342.87 40.8199C342.87 33.9728 335.241 33.307 334.285 33.218Z" fill="#003D28"/>
<path d="M191.837 30.8801C190.61 26.034 187.39 22.1866 182.981 22.1866C177.291 22.1866 172.682 28.1435 172.682 35.4862C172.682 42.8288 177.291 48.3406 182.981 48.3406C187.39 48.3406 190.61 44.9073 191.837 39.9452V47.729H197.748V22.9414H191.837V30.8801ZM185.273 43.1113C182.118 43.1113 178.592 40.4522 178.592 35.4862C178.592 30.5201 182.118 27.4971 185.273 27.4971C188.427 27.4971 191.826 30.3924 191.837 35.3429V35.3933C191.826 40.3438 188.42 43.1113 185.273 43.1113Z" fill="#003D28"/>
<path d="M317.216 31.3717H317.235C316.066 26.4598 312.54 22.2253 305.6 22.0589C305.461 22.0589 305.317 22.0511 305.174 22.0511H305.162C305.019 22.0511 304.876 22.0511 304.737 22.0589C299.209 22.2292 294.588 25.6973 293.121 31.3717C292.803 32.5987 292.633 33.9263 292.633 35.3507C292.633 36.7751 292.811 38.1414 293.14 39.3878C294.627 45.0041 299.225 48.4683 304.725 48.6425C304.868 48.6425 305.012 48.6503 305.159 48.6503H305.17C305.317 48.6503 305.461 48.6503 305.604 48.6425C312.416 48.4838 316.089 44.6441 317.258 39.3878H311.344C311.077 40.46 310.69 41.3657 310.198 42.0508C309.823 42.5733 308.681 44.1564 305.178 44.1642H305.151C301.361 44.1642 298.838 41.1334 298.567 36.3687H317.672C317.692 36.0358 317.703 35.699 317.703 35.3507C317.703 34.5533 317.653 33.7869 317.549 33.0515C317.529 32.9122 317.448 32.2735 317.216 31.3755V31.3717ZM298.753 33.0515C299.415 29.3125 301.652 26.963 304.841 26.8159C304.946 26.8159 305.05 26.8082 305.159 26.8082H305.186C305.294 26.8082 305.395 26.8082 305.503 26.8159C308.72 26.9243 309.834 28.5809 310.214 29.1383C310.593 29.6995 310.903 30.3808 311.15 31.1433C311.332 31.7394 311.476 32.378 311.596 33.0476H298.757L298.753 33.0515Z" fill="#003D28"/>
<path d="M146.125 40.5877V27.6287H152.214V22.9414H141.043C143.911 22.5504 146.125 20.0965 146.125 17.1199V15.9432H140.214V22.9414H137.095V27.6287H140.214V41.3696C140.214 48.8361 148.304 49.2541 152.221 47.8568V42.4301C150.499 43.5875 146.125 44.2377 146.125 40.5916V40.5877Z" fill="#003D28"/>
<path d="M129.168 34.7043C128.328 46.5795 117.591 44.2764 117.591 37.6499V31.4491C117.591 31.0272 117.548 29.3125 116.898 27.5281C116.081 25.2909 114.304 22.9453 110.449 22.9453C108.371 22.9453 101.957 22.7053 100.107 32.2619V23.7H94.2001V48.4877H100.107V36.7287C100.947 24.8535 111.684 27.1565 111.684 33.7831V39.9839C111.684 40.8741 111.877 47.5588 117.591 48.3987C117.974 48.4567 118.388 48.4877 118.825 48.4877C120.904 48.4877 127.317 48.7277 129.168 39.171V47.7329H135.074V22.9453H129.168V34.7043Z" fill="#003D28"/>
<path d="M262.001 22.9414H256.09V47.729H262.001V22.9414Z" fill="#003D28"/>
<path d="M262.001 14.0853H256.09V19.2527H262.001V14.0853Z" fill="#003D28"/>
<path d="M53.6666 0C44.9964 0 37.6499 5.81372 35.3275 13.7486V13.7563L34.5611 16.5819L33.7986 13.7563V13.7486C31.4723 5.81372 24.1258 0 15.4555 0H0V15.4555C0 25.4341 7.62519 33.5431 17.4063 34.4759C31.751 35.8461 34.5572 50.6862 34.5611 50.7133C34.565 50.6862 37.3673 35.8461 51.7158 34.4759C61.497 33.5392 69.1222 25.4341 69.1222 15.4555V0H53.6666Z" fill="#003D28"/>
<path d="M34.5611 52.3351L28.8015 58.0947C25.6199 61.2764 25.6199 66.4321 28.8015 69.6137C31.9832 72.7954 37.1389 72.7954 40.3206 69.6137C43.5023 66.4321 43.5023 61.2764 40.3206 58.0947L34.5611 52.3351Z" fill="#003D28"/>
</svg>
