<svg width="60" height="58" viewBox="0 0 60 58" fill="none" xmlns="http://www.w3.org/2000/svg">
<path fill-rule="evenodd" clip-rule="evenodd" d="M42.9767 10.0337V5.15603L42.9808 5.15796H59.1709V37.6736C59.1709 42.2458 57.6071 46.4545 54.944 49.8493C53.738 51.394 52.3029 52.7744 50.6969 53.9343C47.1655 56.4959 42.7918 58 38.0383 58H0V5.15989H16.1901V0.00193516H19.5066V10.0356H21.2532V5.15796H37.9157V0H41.2321V10.0337H42.9767ZM24.2882 50.2708L23.8581 52.2659L29.1603 50.5801L24.9917 47.0055L24.5797 48.9175C20.8994 47.2394 18.4855 43.6377 18.4855 39.6881C18.4855 34.0545 23.2732 29.4708 29.1603 29.4708V28.1233C22.5014 28.1233 17.0846 33.3122 17.0846 39.6881C17.0846 44.2699 19.9528 48.4361 24.2882 50.2708ZM27.1785 41.9171V41.6329H29.5322L31.6406 45.2926H34.4063V41.6329H36.3278V40.2507H34.4063V39.1274H36.3278V37.7451H34.4063V34.0855H31.9863V37.345V37.7451H29.9925L27.8358 34.0855H24.7586V37.7451H22.837V39.1274H24.7586V40.2507H22.837V41.6329H24.7586V45.2926H27.1785V41.9171ZM30.0045 49.9054V51.2529C36.6635 51.2529 42.0803 46.064 42.0803 39.6881C42.0803 35.1082 39.2121 30.94 34.8766 29.1054L35.3068 27.1102L30.0045 28.796L34.1732 32.3707L34.5852 30.4587C38.2654 32.1367 40.6794 35.7384 40.6794 39.6881C40.6794 45.3216 35.8917 49.9054 30.0045 49.9054ZM3.31642 21.1326H55.8484H55.8505V13.2216H3.31642V21.1326ZM27.1262 37.0104H27.0579C27.072 37.2521 27.084 37.4976 27.0961 37.7431H27.4539C27.3393 37.4957 27.2287 37.2502 27.1283 37.0104H27.1262ZM32.1592 42.0331H32.1934C32.1793 41.8998 32.1672 41.7664 32.1552 41.633H31.9863L32.0592 41.8015L32.0593 41.8018C32.093 41.8795 32.1264 41.9567 32.1592 42.0331ZM32.0084 39.1255H30.7763C30.9713 39.4928 31.1622 39.8698 31.3472 40.2487H32.0546C32.0345 39.8795 32.0205 39.5064 32.0084 39.1255ZM27.1664 40.2487C27.1624 39.8659 27.1544 39.4909 27.1443 39.1255H28.1352C28.3342 39.5083 28.5392 39.8853 28.7422 40.2487H27.1664Z" fill="#003D28"/>
</svg>
