<svg width="149" height="144" viewBox="0 0 149 144" fill="none" xmlns="http://www.w3.org/2000/svg">
<path d="M71.3218 81.9669C68.3773 81.9669 65.9923 84.3519 65.9923 87.2817C65.9923 90.2114 68.3773 92.6111 71.3218 92.6111C74.2662 92.6111 76.6365 90.2261 76.6365 87.2817C76.6365 84.3372 74.2515 81.9669 71.3218 81.9669ZM71.3218 89.6667C70.0115 89.6667 68.9368 88.6067 68.9368 87.2817C68.9368 85.9567 69.9968 84.9114 71.3218 84.9114C72.6468 84.9114 73.7068 85.9714 73.7068 87.2817C73.7068 88.5919 72.6468 89.6667 71.3218 89.6667Z" fill="#003D28"/>
<path d="M85.8526 81.9669C82.9081 81.9669 80.5231 84.3519 80.5231 87.2817C80.5231 90.2114 82.9081 92.6111 85.8526 92.6111C88.797 92.6111 91.1673 90.2261 91.1673 87.2817C91.1673 84.3372 88.7823 81.9669 85.8526 81.9669ZM85.8526 89.6667C84.5423 89.6667 83.4676 88.6067 83.4676 87.2817C83.4676 85.9567 84.5276 84.9114 85.8526 84.9114C87.1776 84.9114 88.2376 85.9714 88.2376 87.2817C88.2376 88.5919 87.1776 89.6667 85.8526 89.6667Z" fill="#003D28"/>
<path d="M64.3287 60.2222L62.1057 51.3889H54.7593V54.3481H56.3934C57.8657 54.3481 59.0876 53.2586 59.2937 51.8453L65.9629 79.0225H91.3734L95.9815 60.2222H64.3287ZM71.3071 76.0781H68.4509L67.1701 71.0872H71.3071V76.0781ZM71.3071 68.1428H66.4193L65.1384 63.1667H71.3071V68.1428ZM83.1143 76.0781H74.2515V71.0872H83.1143V76.0781ZM83.1143 68.1428H74.2515V63.1667H83.1143V68.1428ZM88.959 76.0781H86.0587V71.0872H90.2398L88.959 76.0781ZM91.0054 68.1428H86.0734V63.1667H92.2862L91.0054 68.1428Z" fill="#003D28"/>
<path d="M0.870361 0V144" stroke="#DEDEDE"/>
</svg>
