<svg width="20" height="20" viewBox="0 0 20 20" fill="none" xmlns="http://www.w3.org/2000/svg">
<path d="M13.4033 1.99984V0.666504H12.07V1.99984H8.07001V0.666504H6.73667V1.99984H0.736675V19.3332H12.7367C14.2367 19.3332 15.6167 18.8398 16.73 17.9998C17.2367 17.6198 17.69 17.1665 18.07 16.6598C18.91 15.5465 19.4033 14.1665 19.4033 12.6665V1.99984H13.4033ZM2.07001 3.33984H6.73667V4.67317H8.07001V3.33984H12.07V4.67317H13.4033V3.33984H18.07V6.01317H2.07001V3.33984ZM12.07 7.33984V12.0332H8.07001V7.33984H12.07ZM6.73667 7.33984V12.0332H2.07001V7.33984H6.73667ZM2.07001 13.3665H6.73667V17.9998H2.07001V13.3665ZM9.45667 17.9998H8.07001V13.3665H12.07V17.9998H9.45667ZM13.4033 17.9532V13.3665H18.0167C17.6967 15.7598 15.7967 17.6532 13.4033 17.9532ZM18.07 12.0332H13.4033V7.33984H18.07V12.0332Z" fill="#605D64"/>
</svg>
