<svg width="511" height="90" viewBox="0 0 511 90" fill="none" xmlns="http://www.w3.org/2000/svg">
<path fill-rule="evenodd" clip-rule="evenodd" d="M332.614 0H344.733V10.5956H332.614V0ZM107.13 54.3431V27.7708H119.615V18.1594H96.7091C102.59 17.3578 107.13 12.3259 107.13 6.22249V3.80971H95.0106V18.1594H88.6136V27.7708H95.0106V55.9463C95.0106 71.2564 111.598 72.1135 119.63 69.2484V58.121C116.099 60.4941 107.13 61.8275 107.13 54.3511V54.3431ZM248.603 39.2313C247.821 39.1581 246.956 39.1082 246.046 39.0556C240.236 38.7199 232.555 38.276 232.555 31.0167C232.555 29.3659 233.761 24.4768 242.523 24.4768C251.286 24.4768 253.881 27.5722 254.143 34.2787H266.183C265.675 23.1434 257.397 15.548 240.857 15.548C229.118 15.548 220.507 22.8974 220.507 31.104C220.507 46.5528 234.794 47.3618 238.358 47.5636C238.573 47.5758 238.749 47.5858 238.88 47.5966C239.138 47.6178 239.432 47.6388 239.757 47.6619L239.757 47.6619C244.172 47.977 254.167 48.6902 254.167 55.6921C254.167 61.8193 245.841 62.5178 243.317 62.5178C239.865 62.5178 231.198 59.8431 231.198 51.8269H219.15C219.15 54.3032 220.507 70.8752 243.127 70.8752C246.77 70.8752 266.207 70.8752 266.207 54.8191C266.207 40.8656 250.756 39.4312 248.641 39.2348L248.603 39.2313ZM388.338 57.3431C387.568 58.4146 385.219 61.6766 378.004 61.6766C369.758 61.6766 364.432 54.6922 364.432 43.8823C364.432 33.0725 369.758 26.0881 378.004 26.0881C385.115 26.0881 387.546 29.675 388.351 30.8619L388.354 30.866C389.211 32.128 389.901 33.6915 390.433 35.4535H402.767C400.314 25.1674 392.838 16.3338 378.012 16.3338C363.186 16.3338 352.321 26.85 352.321 43.6046C352.321 60.3591 363.821 70.8753 378.012 70.8753C392.203 70.8753 400.378 62.8988 402.83 51.8747H390.703C390.155 54.0732 389.362 55.9304 388.354 57.3352L388.338 57.3431ZM150.679 20.1991L150.62 20.2466C150.518 20.328 150.412 20.4132 150.306 20.4928C147.187 23.0167 144.068 27.6993 142.385 35.7234V18.1673H130.274V68.9944H142.385V44.8825C144.115 24.2151 158.83 27.1676 161.489 28.3898V16.6434C158.656 16.7466 154.489 17.3022 150.687 20.207L150.679 20.1991ZM285.866 34.4374C288.382 24.5085 294.985 16.6115 304.025 16.6115C315.692 16.6115 325.145 28.8182 325.145 43.8822C325.145 58.9462 315.692 70.2402 304.025 70.2402C294.985 70.2402 288.382 63.2003 285.866 53.0253V89.8678H273.778V18.1591H285.866V34.4374ZM285.866 43.6917C285.89 53.8428 292.874 59.5176 299.327 59.5176C305.795 59.5176 313.026 54.0651 313.026 43.8822C313.026 33.6993 305.779 27.5007 299.327 27.5007C292.874 27.5007 285.89 33.4374 285.866 43.5885V43.6917ZM490.395 39.0556C491.306 39.1082 492.17 39.1581 492.952 39.2313L492.99 39.2348C495.105 39.4312 510.556 40.8656 510.556 54.8191C510.556 70.8752 491.119 70.8752 487.476 70.8752C464.856 70.8752 463.499 54.3032 463.499 51.8269H475.547C475.547 59.8431 484.214 62.5178 487.666 62.5178C490.19 62.5178 498.516 61.8193 498.516 55.6921C498.516 48.6902 488.521 47.977 484.106 47.6619C483.782 47.6388 483.488 47.6178 483.23 47.5966C483.098 47.5858 482.922 47.5758 482.707 47.5636C479.143 47.3618 464.856 46.5528 464.856 31.104C464.856 22.8974 473.467 15.548 485.206 15.548C501.746 15.548 510.024 23.1434 510.532 34.2787H498.492C498.23 27.5722 495.635 24.4768 486.873 24.4768C478.11 24.4768 476.904 29.3659 476.904 31.0167C476.904 38.276 484.586 38.7199 490.395 39.0556ZM200.863 34.4374C198.347 24.5006 191.744 16.6115 182.704 16.6115C171.037 16.6115 161.584 28.8261 161.584 43.8822C161.584 58.9382 171.037 70.2402 182.704 70.2402C191.744 70.2402 198.347 63.2003 200.863 53.0253V68.9862H212.983V18.1591H200.863V34.4374ZM187.402 59.5176C180.934 59.5176 173.704 54.0651 173.704 43.8822C173.704 33.6993 180.934 27.5007 187.402 27.5007C193.871 27.5007 200.839 33.4374 200.863 43.5885V43.6917C200.839 53.8428 193.855 59.5176 187.402 59.5176ZM457.991 35.4456H457.951V35.4535C458.403 37.1988 458.576 38.4664 458.626 38.8371L458.627 38.8375V38.8377L458.634 38.8901C458.848 40.3981 458.951 41.9696 458.951 43.6046C458.951 44.3189 458.927 45.0094 458.888 45.6919H419.712C420.267 55.4621 425.442 61.6766 433.212 61.6766H433.268C440.451 61.6607 442.792 58.4146 443.562 57.3431C444.57 55.9383 445.363 54.0811 445.911 51.8826H458.038C455.642 62.6607 448.11 70.534 434.141 70.8594C433.847 70.8753 433.554 70.8753 433.252 70.8753H433.228C433.077 70.8753 432.927 70.8713 432.779 70.8673H432.779H432.778H432.778H432.778H432.777H432.777L432.774 70.8672C432.72 70.8657 432.665 70.8643 432.611 70.863C432.576 70.8622 432.541 70.8615 432.507 70.8609C432.451 70.86 432.395 70.8594 432.339 70.8594C421.061 70.5023 411.632 63.3989 408.584 51.8826C407.91 49.327 407.545 46.5253 407.545 43.6046C407.545 40.6838 407.894 37.9615 408.545 35.4456C411.553 23.8103 421.029 16.6989 432.363 16.3497C432.649 16.3338 432.942 16.3338 433.236 16.3338H433.26C433.408 16.3338 433.556 16.3378 433.702 16.3418C433.847 16.3458 433.991 16.3497 434.133 16.3497C448.364 16.691 455.594 25.3738 457.991 35.4456ZM432.577 26.104C426.037 26.4056 421.45 31.2232 420.093 38.8901L420.101 38.8822H446.427C446.181 37.5091 445.887 36.1996 445.514 34.9773C445.006 33.4137 444.371 32.0169 443.594 30.866L443.584 30.8523C442.798 29.6962 440.504 26.3253 433.935 26.104C433.712 26.0881 433.506 26.0881 433.284 26.0881H433.228C433.116 26.0881 433.006 26.0922 432.897 26.0962C432.79 26.1001 432.684 26.104 432.577 26.104ZM48.6202 48.3192C48.6202 61.9069 70.6368 66.6293 72.3591 42.2793V18.1674H84.4706V68.9944H72.3591V51.4383C68.6521 70.586 56.0108 70.5541 51.4582 70.5426C51.3517 70.5424 51.2495 70.5421 51.1521 70.5421C50.2552 70.5421 49.406 70.4786 48.6202 70.3596C36.9055 68.6373 36.5087 54.9305 36.5087 53.105V40.3903C36.5087 26.8026 14.4921 22.0802 12.7698 46.4302V70.5421H0.658325V19.715H12.7698V37.2712C16.4768 18.1235 29.1181 18.1554 33.6707 18.1668C33.7773 18.1671 33.8794 18.1674 33.9769 18.1674C41.8819 18.1674 45.5249 22.9771 47.1996 27.5645C48.5329 31.2234 48.6202 34.7393 48.6202 35.6045V48.3192ZM344.733 18.159H332.614V68.986H344.733V18.159Z" fill="white"/>
</svg>
