  <svg
                        width="33"
                        height="33"
                        viewBox="0 0 33 33"
                        fill="none"
                        xmlns="http://www.w3.org/2000/svg"
                      >
                        <path
                          d="M22.0554 3.20562V0.983398H19.8332V3.20562H13.1666V0.983398H10.9443V3.20562H0.944336V32.0945H20.9443C23.4443 32.0945 25.7443 31.2723 27.5999 29.8723C28.4443 29.239 29.1999 28.4834 29.8332 27.639C31.2332 25.7834 32.0554 23.4834 32.0554 20.9834V3.20562H22.0554ZM3.16656 5.43895H10.9443V7.66118H13.1666V5.43895H19.8332V7.66118H22.0554V5.43895H29.8332V9.89451H3.16656V5.43895ZM19.8332 12.1056V19.9278H13.1666V12.1056H19.8332ZM10.9443 12.1056V19.9278H3.16656V12.1056H10.9443ZM3.16656 22.1501H10.9443V29.8723H3.16656V22.1501ZM15.4777 29.8723H13.1666V22.1501H19.8332V29.8723H15.4777ZM22.0554 29.7945V22.1501H29.7443C29.211 26.139 26.0443 29.2945 22.0554 29.7945ZM29.8332 19.9278H22.0554V12.1056H29.8332V19.9278Z"
                          fill="#BCF800"
                        />
                      </svg>